<?xml version="1.0" encoding="utf-8"?>
<!-- Generator: Adobe Illustrator 27.5.0, SVG Export Plug-In . SVG Version: 6.00 Build 0)  -->
<svg version="1.1" xmlns="http://www.w3.org/2000/svg" xmlns:xlink="http://www.w3.org/1999/xlink" x="0px" y="0px"
	 viewBox="0 0 2122 2122" style="enable-background:new 0 0 2122 2122;" xml:space="preserve">
<g id="Capa_1">
	<g>
		<path style="fill:#FFE9C0;" d="M1146.138,634.279c-0.146-0.124-0.331-0.178-0.521-0.141c-32.897,6.036-64.205-9.866-77.89-39.569
			c-15.679-34.039-1.766-74.573,31.673-92.275c0.229-0.122,0.361-0.373,0.326-0.631c-0.034-0.255-0.224-0.467-0.477-0.526
			c-6.967-1.649-41.515-12.122-37.335-56.563c3.116-33.109,39.001-75.988,78.885-79.578c0.17-0.014,0.326-0.097,0.428-0.229
			c0.107-0.132,0.156-0.3,0.136-0.465c-0.277-2.336-0.448-4.604-0.497-6.741c-0.005-0.158-0.068-0.307-0.175-0.418
			c-2.441-2.514-4.731-4.702-7.006-6.69c-24.78-21.62-55.674-25.344-84.368-10.692c10.154-9.265,16.399-21.661,16.828-34.144
			c0.368-10.685-3.24-26.319-22.509-40.131c-32.373-23.199-67.535,9.603-75.352,17.637c1.267-6.044,3.881-22.538-2.913-31.454
			c-2.865-3.762-7.075-5.706-12.516-5.779c-20.77-0.243-28.48,26.3-30.368,34.651c-3.569-11.238-21.135-58.222-68.217-70.548
			c-24.76-6.477-45.798,3.476-59.086,12.97c-23.026,16.446-40.322,44.263-42.061,67.644c-3.189,42.855,28.176,54.275,37.866,56.765
			c-10.484,6.132-19.374,14.999-25.776,25.73c-0.112,0.19-0.117,0.424-0.012,0.619c0.107,0.193,0.307,0.317,0.529,0.324
			c39.863,1.247,75.361,24.207,90.436,58.489c0.1,0.227,0.324,0.373,0.57,0.373c0.007,0,0.014,0,0.024,0
			c0.256-0.01,0.48-0.176,0.563-0.417c2.317-6.578,8.046-12.495,15.323-15.832c8.746-4.01,18.556-4.599,27.854-4.86
			c0.246-0.007,0.463-0.156,0.558-0.382c0.095-0.224,0.048-0.485-0.117-0.665c-8.406-9.099-17.937-19.41-21.959-32.039
			c-3.749-11.761-1.651-27.42,9.61-34.587c8.578-5.474,20.974-4.124,28.826,3.133c7.433,6.867,10.476,18.436,7.571,28.792
			c-0.092,0.329,0.098,0.67,0.424,0.767c0.331,0.093,0.672-0.088,0.772-0.419c2.855-9.42,8.246-17.866,15.593-24.424
			c4.044-3.615,7.529-5.298,10.967-5.298c0.012,0,0.024,0,0.036,0c7.864,0.032,12.892,9.014,13.632,17.447
			c0.736,8.422-0.996,16.948-4.877,24.01c-0.161,0.29-0.063,0.655,0.219,0.831c0.287,0.175,0.655,0.095,0.84-0.178
			c7.627-11.113,17.6-19.179,27.367-22.126c7.198-2.173,15.898-0.782,22.151,3.552c4.619,3.201,7.34,7.688,7.664,12.631
			c0.58,8.899-6.333,16.382-10.504,20.054c-2.246,1.973-4.687,3.822-7.047,5.608c-3.951,2.991-8.039,6.085-11.377,9.893
			c-0.188,0.217-0.204,0.536-0.039,0.77c0.168,0.234,0.47,0.331,0.735,0.221c13.511-5.291,28.044-4.477,38.88,2.198
			c11.903,7.33,18.134,22.121,14.495,34.402c-1.732,5.839-5.659,11.518-11.362,16.419c-8.862,7.62-19.8,11.498-30.014,10.665
			c-11.318-0.936-21.461-8.056-25.242-17.72c-0.09-0.231-0.31-0.387-0.558-0.397c-0.209,0.008-0.478,0.134-0.584,0.356
			c-3.476,7.303-7.416,15.584-14.507,20.543c-6.623,4.626-17.42,5.116-22.333-1.581c-3.091-4.222-3.262-10.714-0.429-16.536
			c2.617-5.382,7.06-9.572,11.357-13.625c0.241-0.229,0.261-0.607,0.044-0.86c-0.212-0.251-0.592-0.287-0.858-0.085
			c-18.275,14.263-43.583,19.572-66.046,13.844c-7.7-1.963-15.076-5.931-20.238-10.892c-0.188-0.189-0.485-0.227-0.716-0.105
			c-0.236,0.124-0.37,0.383-0.331,0.646l0.093,0.539c3.089,21.797-0.007,42.833-9.203,62.526c-4.19,0.232-8.115,0.721-11.986,1.493
			c-25.096,5.003-39.661,23.162-47.459,37.512c-13.508,24.86-16.891,57.44-8.227,79.228c2.114,5.31,4.663,10.046,7.79,14.482
			c0.117,0.166,0.307,0.263,0.509,0.263h136.065c0.212,0,0.41-0.107,0.524-0.285c0.115-0.178,0.132-0.399,0.046-0.594
			c-4.037-9.023-3.929-18.139,0.292-25.011c5.327-8.67,17.052-12.889,27.294-9.793c9.688,2.924,17.486,11.998,19.401,22.58
			c0.058,0.334,0.363,0.568,0.718,0.502c0.336-0.056,0.565-0.375,0.511-0.711c-1.552-9.725-0.397-19.678,3.338-28.787
			c2.063-5.04,4.473-8.083,7.576-9.576c7.084-3.411,15.54,2.46,19.891,9.725c4.345,7.247,6.519,15.674,6.119,23.72
			c-0.015,0.334,0.232,0.619,0.563,0.653c0.344,0.041,0.629-0.202,0.677-0.528c1.996-13.328,7.435-24.945,14.926-31.871
			c5.523-5.106,13.937-7.674,21.476-6.495c5.554,0.858,9.961,3.7,12.414,8.005c4.414,7.742,1.476,17.498-0.672,22.626
			c-1.155,2.758-2.541,5.489-3.884,8.129c-2.243,4.419-4.565,8.989-5.9,13.873c-0.075,0.275,0.049,0.57,0.3,0.709
			c0.254,0.141,0.565,0.09,0.76-0.124c9.829-10.672,23.316-16.304,35.919-15.033c10.962,1.092,21.359,8.295,25.881,17.93
			c0.102,0.219,0.322,0.358,0.565,0.358h27.805c0.186,0,0.366-0.083,0.482-0.229c0.117-0.144,0.166-0.336,0.127-0.519
			c-1.189-5.891-1.69-11.669-1.481-17.177C1146.357,634.586,1146.279,634.404,1146.138,634.279z M1049.928,505.776
			c-0.014,0-0.027,0-0.041,0c-3.564,0-7.157,0.599-10.39,1.734c-11.42,3.951-20.67,13.011-30.724,23.566
			c-1.053,1.104-2.651,1.472-4.083,0.945c-1.427-0.526-2.409-1.846-2.497-3.364c-0.419-7.296-3.622-14.807-8.787-20.604
			c-5.274-5.937-12.097-9.698-19.216-10.592c-1.035-0.132-2.102-0.2-3.172-0.2c-0.014,0-0.029,0-0.046,0
			c-6.65,0-13.576,2.626-19.008,7.208c-5.581,4.695-9.009,10.831-9.652,17.276c-0.176,1.718-1.486,3.114-3.189,3.389
			c-1.715,0.278-3.391-0.624-4.102-2.195c-2.085-4.631-5.267-8.816-8.962-11.783c-3.92-3.145-8.231-4.809-12.475-4.809l-0.361,0.005
			c-3.213,0.051-6.706,1.676-9.34,4.343c-2.572,2.563-4.151,5.975-4.119,8.901c0.005,1.476,0.353,2.806,1.067,4.068
			c0.891,1.569,0.556,3.574-0.799,4.768c-1.359,1.191-3.388,1.264-4.831,0.178c-7.059-5.345-15.864-8.285-24.792-8.285
			c-0.012,0-0.024,0-0.034,0c-1.096,0-2.183,0.043-3.232,0.131c-2.071,0.161-3.949-1.398-4.124-3.5
			c-0.083-1.018,0.236-2.008,0.896-2.787c0.66-0.78,1.586-1.255,2.604-1.338c1.259-0.102,2.555-0.156,3.856-0.156
			c7.209,0.004,14.524,1.681,21.159,4.85c0.176,0.085,0.385,0.08,0.561-0.012c0.175-0.093,0.294-0.263,0.324-0.458
			c0.643-4.293,2.789-8.465,6.037-11.752c4.109-4.119,9.289-6.463,14.577-6.599l0.558-0.008c6.025,0.003,11.995,2.251,17.264,6.502
			c1.959,1.579,3.808,3.464,5.654,5.761c0.134,0.168,0.365,0.261,0.56,0.229c0.215-0.025,0.4-0.158,0.492-0.353
			c2.156-4.594,5.435-8.821,9.479-12.222c6.901-5.795,15.418-8.991,23.978-9.004c1.393,0,2.784,0.088,4.136,0.261
			c8.965,1.145,17.476,5.795,23.968,13.098c4.185,4.717,7.335,10.383,9.106,16.387c0.063,0.21,0.232,0.373,0.445,0.427
			c0.222,0.053,0.441-0.008,0.595-0.164c7.294-7.298,16.287-15.3,27.7-19.33c4.095-1.435,8.449-2.163,12.938-2.165
			c5.681,0.002,11.155,1.21,15.832,3.495c5.196,2.533,9.303,6.387,11.866,11.142c0.487,0.896,0.595,1.93,0.302,2.907
			c-0.292,0.981-0.95,1.788-1.851,2.275c-0.896,0.487-1.929,0.602-2.909,0.3c-0.979-0.292-1.788-0.948-2.271-1.846
			c-1.827-3.372-4.687-6.032-8.499-7.908C1058.754,506.715,1054.45,505.776,1049.928,505.776z"/>
		<path style="fill:#FCCF9B;" d="M1503.667,364.762c-20.19-24.319-38.704-33.208-60.317-28.424
			c12.254-6.816,21.306-17.732,24.492-30.043c2.68-10.348,2.553-26.397-13.262-44.064c-26.558-29.69-68.009-5.288-77.383,0.86
			c2.548-5.625,8.682-21.159,3.985-31.34c-1.978-4.293-5.667-7.106-10.962-8.358c-20.21-4.811-33.515,19.491-37.164,27.233
			c-1.048-11.744-7.995-61.423-51.274-83.676c-22.777-11.7-45.467-6.548-60.502-0.166c-26.041,11.055-48.96,34.453-55.737,56.896
			c-12.419,41.143,15.717,59.099,24.638,63.632c-30.577,9.768-51.294,38.439-50.563,70.277c0.049,1.981,0.195,4.073,0.434,6.224
			c-19.001,1.9-38.1,12.314-53.856,29.378c-14.431,15.63-23.973,34.792-25.525,51.264c-4.024,42.787,27.103,54.816,36.745,57.494
			c-33.011,18.392-46.558,58.976-30.823,93.14c13.82,30,45.303,46.173,78.487,40.409c-0.137,5.374,0.375,10.989,1.535,16.702
			c0.058,0.29,0.312,0.499,0.609,0.499h288.945c0.17,0,0.331-0.071,0.448-0.193c11.849-12.373,19.932-25.795,24.034-39.898
			c3.479-11.954,3.99-24.098,1.525-36.097c-3.854-18.736-14.636-36.249-32.049-52.054c-9.973-9.048-18.777-15.69-26.908-20.3
			c-5.301-9.435-11.401-23.661-10.573-38.141c0.01-0.207-0.078-0.404-0.243-0.529c-0.156-0.129-0.37-0.161-0.57-0.102
			c-5.067,1.615-10.168,2.295-15.137,2.02c-0.146,0.008-0.346,0.056-0.473,0.178c-0.122,0.124-0.19,0.292-0.185,0.467l0.03,0.858
			c0.068,1.927,0.136,3.849,0.248,5.684c0.375,6.443,1.286,10.974,2.879,14.256c1.287,2.665,2.885,4.523,5.184,6.029
			c0.858,0.555,1.447,1.413,1.661,2.412c0.21,0.999,0.019,2.022-0.536,2.879c-0.555,0.855-1.413,1.445-2.412,1.657
			c-0.999,0.219-2.017,0.026-2.884-0.534c-3.377-2.185-6.115-5.345-7.913-9.14c-1.491-3.128-2.47-6.699-3.074-11.24
			c-0.536-4.144-0.687-8.363-0.833-12.446c-0.131-3.605-0.254-7.011-0.629-10.149c-1.033-8.92-5.067-17.785-11.356-24.965
			c-6.28-7.189-14.533-12.363-23.24-14.573c-3.459-0.879-7.074-1.325-10.743-1.325c-0.019,0-0.039,0-0.063,0
			c-4.604,0-9.398,0.775-14.29,2.315c-4.473,1.669-9.062,3.949-13.676,6.804c-4.268,3.045-7.8,6.543-10.509,10.395l-11.05,15.649
			l4.195-18.692c0.307-1.384,0.463-2.823,0.463-4.275c0.005-3.927-1.164-8.034-3.215-11.267c-2.129-3.369-5.023-5.708-8.371-6.76
			c-1.052-0.331-2.192-0.49-3.308-0.488c-3.177,0-6.743,1.41-9.325,3.686c-2.636,2.305-4.136,5.247-4.122,8.071
			c0,0.506,0.044,1.008,0.142,1.542l3.625,19.56l-10.621-16.824c-19.269-30.558-50.441-53.052-85.515-61.712
			c-0.994-0.244-1.832-0.86-2.358-1.735c-0.526-0.875-0.682-1.902-0.438-2.897c0.248-0.991,0.863-1.829,1.735-2.355
			c0.872-0.529,1.9-0.68,2.894-0.438c28.346,7.021,54.938,23.013,74.874,45.033c0.199,0.219,0.526,0.27,0.779,0.12
			c0.254-0.149,0.371-0.458,0.273-0.738c-1.471-4.377-1.588-8.689-0.351-12.809c2.436-8.139,10.548-14.799,20.663-16.967
			c9.408-2.013,19.109-0.463,28.248,1.306c0.244,0.053,0.487-0.049,0.624-0.251c0.141-0.2,0.156-0.463,0.034-0.675
			c-6.236-10.704-13.301-22.838-14.485-36.041c-1.106-12.293,4.341-27.123,16.897-31.678c9.54-3.469,21.364,0.529,27.454,9.318
			c5.768,8.317,6.222,20.27,1.135,29.747c-0.161,0.302-0.048,0.677,0.248,0.84c0.307,0.171,0.677,0.056,0.843-0.238
			c4.843-8.58,11.941-15.654,20.526-20.458c4.751-2.658,8.521-3.549,11.893-2.779c7.674,1.737,10.631,11.595,9.52,19.987
			c-1.106,8.383-4.648,16.329-9.973,22.378c-0.219,0.249-0.205,0.626,0.034,0.86c0.239,0.229,0.619,0.232,0.858,0.008
			c9.856-9.189,21.345-14.896,31.523-15.657c7.513-0.56,15.688,2.69,20.848,8.275c3.815,4.129,5.495,9.098,4.741,13.995
			c-1.364,8.809-9.74,14.616-14.611,17.293c-2.616,1.44-5.403,2.714-8.098,3.946c-4.507,2.063-9.164,4.195-13.252,7.186
			c-0.229,0.171-0.317,0.477-0.204,0.743c0.107,0.265,0.355,0.429,0.672,0.377c14.358-2.241,28.346,1.72,37.476,10.585
			c4.526,4.395,7.786,10.37,9.184,16.821c0.043,0.195,0.175,0.358,0.355,0.439c0.186,0.083,0.385,0.071,0.565-0.029
			c11.294-6.463,23.294-7.776,34.714-3.776c12.249,4.288,22.85,14.563,28.736,27.73c0.302,0.745,0.614,1.488,0.94,2.232
			c0.136,0.314,0.487,0.462,0.809,0.326c0.317-0.129,0.468-0.489,0.341-0.804c-0.302-0.755-0.614-1.503-0.945-2.242
			c-13.218-32.492-5.428-64.794,21.091-86.794c0.127-0.105,0.205-0.259,0.219-0.422
			C1503.828,365.054,1503.774,364.891,1503.667,364.762z M1160.813,593.542c0.775-8.46,7.406-16.594,16.896-20.721
			c8.828-3.842,18.646-4.239,27.947-4.317c0.243-0.003,0.467-0.146,0.565-0.37c0.098-0.224,0.059-0.485-0.102-0.668
			c-8.229-9.257-17.554-19.749-21.33-32.461c-3.517-11.834-1.115-27.449,10.285-34.394c8.672-5.291,21.047-3.71,28.755,3.695
			c7.298,7.009,10.115,18.636,7.006,28.933c-0.097,0.327,0.088,0.673,0.414,0.775c0.302,0.105,0.672-0.073,0.78-0.402
			c3.04-9.369,8.595-17.708,16.063-24.115c4.034-3.464,7.494-5.084,10.865-5.084c0.083,0,0.161,0,0.243,0.002
			c7.864,0.185,12.716,9.262,13.286,17.71c0.57,8.434-1.326,16.923-5.345,23.907c-0.166,0.29-0.078,0.658,0.204,0.836
			c0.273,0.178,0.648,0.112,0.843-0.161c7.839-10.959,17.969-18.828,27.795-21.591c7.24-2.031,15.908-0.467,22.075,3.985
			c4.556,3.294,7.191,7.83,7.416,12.78c0.409,8.906-6.65,16.256-10.899,19.844c-2.28,1.929-4.76,3.732-7.157,5.474
			c-4.005,2.914-8.151,5.927-11.562,9.666c-0.19,0.211-0.214,0.528-0.053,0.767c0.161,0.238,0.472,0.338,0.731,0.236
			c13.613-5.032,28.122-3.922,38.831,2.955c11.756,7.561,17.696,22.468,13.817,34.677c-1.847,5.805-5.881,11.405-11.678,16.197
			c-9.013,7.442-20.024,11.113-30.217,10.075c-11.299-1.157-21.301-8.475-24.892-18.212c-0.088-0.232-0.302-0.392-0.551-0.407
			c-0.243,0.017-0.482,0.124-0.589,0.343c-3.625,7.24-7.727,15.443-14.904,20.256c-6.709,4.499-17.52,4.774-22.299-2.015
			c-3.011-4.28-3.055-10.775-0.107-16.543c2.723-5.335,7.449-9.62,11.62-13.399c0.248-0.224,0.273-0.602,0.063-0.86
			c-0.127-0.149-0.302-0.227-0.483-0.227c-0.132,0-0.263,0.041-0.375,0.124c-18.548,13.905-43.946,18.724-66.305,12.551
			C1173.733,619.327,1159.507,607.77,1160.813,593.542z"/>
		<path style="fill:#E6E6E6;" d="M1442.936,1817.413c-3.289,2.119-6.894,4.27-11.03,6.579c-0.21,0.117-0.419,0.232-0.634,0.346
			l-0.468,0.256c-2.821,1.554-5.725,3.077-8.633,4.526c-0.405,0.207-0.819,0.41-1.233,0.612l-0.312,0.154
			c-2.943,1.444-5.988,2.877-9.052,4.253l-1.535,0.689c-3.22,1.427-6.636,2.872-10.144,4.292l-0.945,0.385
			c-15.401,6.178-32.804,11.934-51.722,17.106c-0.02,0.002-0.039,0.007-0.058,0.012c-37.033,10.122-79.454,18.015-126.1,23.462
			l-0.21,0.024c-40.404,4.709-82.397,7.386-124.799,7.954l-1.135,0.012c-6.202,0.076-12.716,0.1-19.328,0.09l-3.61-0.012
			c-43.182-0.249-84.874-2.722-124.007-7.355c-0.027-0.007-0.053-0.012-0.083-0.014c-43.676-5.182-82.826-12.933-116.368-23.035
			l-1.649-0.509c-3.864-1.182-7.63-2.385-11.196-3.576l-2.273-0.772c-3.405-1.162-6.823-2.378-10.158-3.618l-2.378-0.892
			c-3.191-1.213-6.443-2.507-9.666-3.844l-0.694-0.285c-0.477-0.195-0.955-0.392-1.425-0.592c-3.186-1.347-6.45-2.797-9.7-4.309
			l-1.405-0.643c-11.754-5.554-22.383-11.618-31.594-18.027c-0.221-0.153-0.509-0.153-0.718,0.005
			c-0.214,0.154-0.309,0.427-0.237,0.68c4.648,16.086,9.138,28.356,13.342,36.47c38.87,74.984,187.147,102.611,312.952,103.462
			c2.051,0.015,4.102,0.02,6.163,0.02c146.665,0,311.922-35.191,348.497-103.474c4.546-8.487,9.418-21.856,14.48-39.737
			c0.073-0.251-0.02-0.516-0.229-0.673C1443.443,1817.284,1443.161,1817.274,1442.936,1817.413z"/>
		<path style="fill:#C90C0F;" d="M1478.595,704.513c-0.117-0.132-0.287-0.207-0.463-0.207H1353.87c-0.331,0-0.604,0.258-0.624,0.587
			l-24.263,427.498c-0.005,0.132,0.029,0.26,0.097,0.37c27.859,44.078,42.587,94.979,42.587,147.201
			c0,63.464-21.004,123.159-60.741,172.633c-0.078,0.1-0.126,0.224-0.136,0.353l-23.707,417.751c-0.01,0.19,0.068,0.375,0.209,0.502
			c0.117,0.102,0.263,0.156,0.414,0.156c0.039,0,0.078-0.003,0.112-0.01l1.895-0.351c20.478-3.857,39.922-8.285,57.788-13.17
			c0.243-0.068,0.424-0.277,0.453-0.531L1478.751,705C1478.771,704.822,1478.717,704.647,1478.595,704.513z"/>
		<path style="fill:#C90C0F;" d="M945.833,1047.955c0.088,0.046,0.186,0.068,0.283,0.068c0.117,0,0.237-0.034,0.339-0.1
			c32.077-20.68,67.364-34.241,104.879-40.307c0.302-0.048,0.524-0.309,0.524-0.616V704.93c0-0.343-0.28-0.624-0.624-0.624H926.679
			c-0.171,0-0.336,0.071-0.453,0.195c-0.117,0.124-0.181,0.292-0.171,0.465l19.437,342.47
			C945.507,1047.655,945.636,1047.855,945.833,1047.955z"/>
		<path style="fill:#C90C0F;" d="M1140.106,1007.616c37.515,6.068,72.799,19.63,104.877,40.307c0.102,0.066,0.219,0.1,0.336,0.1
			c0.097,0,0.195-0.022,0.282-0.068c0.2-0.1,0.326-0.3,0.341-0.519l19.439-342.47c0.01-0.173-0.053-0.341-0.17-0.465
			c-0.117-0.124-0.283-0.195-0.453-0.195h-124.555c-0.346,0-0.624,0.28-0.624,0.624V1007
			C1139.58,1007.307,1139.804,1007.568,1140.106,1007.616z"/>
		<path style="fill:#C90C0F;" d="M1652.734,704.513c-0.117-0.132-0.288-0.207-0.463-0.207h-84.594c-0.316,0-0.584,0.239-0.619,0.553
			l-126.489,1114.313c-0.03,0.238,0.083,0.47,0.287,0.599c0.102,0.063,0.215,0.095,0.331,0.095c0.117,0,0.229-0.032,0.331-0.095
			l2.09-1.311c15.693-10.139,27.196-21.062,34.187-32.463c65.271-106.427,157.306-919.159,175.094-1081
			C1652.909,704.822,1652.856,704.645,1652.734,704.513z"/>
		<path style="fill:#C90C0F;" d="M623.759,704.306h-84.577c-0.178,0-0.346,0.075-0.465,0.207c-0.117,0.132-0.173,0.309-0.154,0.485
			c17.783,161.22,109.813,971.027,175.074,1080.992c7.596,12.799,19.386,24.816,35.041,35.713l1.557,1.106
			c0.107,0.075,0.234,0.114,0.361,0.114c0.109,0,0.219-0.029,0.316-0.087c0.212-0.124,0.331-0.363,0.302-0.607L624.377,704.859
			C624.343,704.545,624.075,704.306,623.759,704.306z"/>
		<path style="fill:#C90C0F;" d="M880.511,1452.595c-39.737-49.469-60.74-109.164-60.74-172.633
			c0-52.229,14.726-103.13,42.584-147.201c0.071-0.11,0.105-0.238,0.098-0.37l-24.261-427.498c-0.019-0.329-0.292-0.587-0.624-0.587
			H713.301c-0.178,0-0.346,0.075-0.465,0.207c-0.119,0.134-0.176,0.309-0.154,0.487l131.357,1157.229
			c0.029,0.265,0.224,0.482,0.487,0.538l59.32,12.918c0.044,0.01,0.088,0.015,0.132,0.015c0.146,0,0.29-0.051,0.405-0.149
			c0.148-0.127,0.229-0.317,0.219-0.512l-23.954-422.092C880.64,1452.819,880.591,1452.694,880.511,1452.595z"/>
		<path style="fill:#FFFFFF;" d="M713.301,704.306h-89.542c-0.178,0-0.346,0.075-0.466,0.207c-0.119,0.134-0.175,0.309-0.153,0.487
			l126.835,1117.37c0.02,0.18,0.117,0.344,0.268,0.446c8.804,5.983,18.97,11.71,30.209,17.018l1.413,0.648
			c3.264,1.52,6.541,2.974,9.74,4.329c0.475,0.199,0.957,0.399,1.437,0.597l0.691,0.282c3.206,1.33,6.468,2.629,9.701,3.856
			l2.387,0.897c3.345,1.242,6.775,2.463,10.19,3.627l2.28,0.777c3.576,1.193,7.352,2.402,11.228,3.586l1.651,0.509
			c4.514,1.359,8.997,2.643,13.323,3.817c0.054,0.015,0.11,0.022,0.164,0.022c0.146,0,0.292-0.051,0.407-0.151
			c0.156-0.134,0.236-0.338,0.212-0.543L713.919,704.859C713.885,704.545,713.617,704.306,713.301,704.306z"/>
		<path style="fill:#FFFFFF;" d="M1329.608,1132.428l24.262-427.499h-89.113l-19.437,342.469
			c-31.286-20.168-66.874-34.213-105.118-40.399V704.93h-88.966v302.069c-38.245,6.186-73.832,20.231-105.119,40.4L926.68,704.93
			h-89.113l24.262,427.498c-26.997,42.707-42.682,93.274-42.682,147.534c0,65.501,22.819,125.643,60.876,173.024l23.955,422.091
			c14.21,2.441,28.862,4.548,43.849,6.327c0.003,0,0.006,0,0.009,0.001c14.987,1.779,30.308,3.23,45.862,4.361l-20.304-357.744
			c24.167,11.94,50.318,20.451,77.842,24.903v335.574c6.901,0.156,13.823,0.241,20.751,0.279c1.202,0.006,2.405,0.007,3.608,0.01
			c6.443,0.017,12.892-0.006,19.341-0.089c0.379-0.004,0.758-0.006,1.137-0.011c14.74-0.203,29.477-0.661,44.13-1.37v-334.394
			c27.523-4.452,53.674-12.963,77.841-24.903l-20.157,355.158c7.747-0.744,15.434-1.562,23.05-2.45
			c0.072-0.009,0.144-0.016,0.216-0.025c22.961-2.682,45.265-6.013,66.555-9.971l23.709-417.748
			c38.056-47.38,60.875-107.522,60.875-173.023C1372.29,1225.702,1356.604,1175.135,1329.608,1132.428z M1095.718,1506.175
			c-124.934,0-226.214-101.279-226.214-226.214c0-124.935,101.279-226.214,226.214-226.214
			c124.935,0,226.214,101.279,226.214,226.214C1321.932,1404.896,1220.653,1506.175,1095.718,1506.175z"/>
		<path style="fill:#FFFFFF;" d="M1567.677,704.306h-89.544c-0.317,0-0.585,0.239-0.619,0.553l-130.796,1152.295
			c-0.02,0.178,0.039,0.353,0.161,0.487c0.117,0.132,0.292,0.207,0.468,0.207c0.053,0,0.112-0.007,0.166-0.022
			c18.981-5.189,36.448-10.962,51.907-17.162l0.945-0.39c3.523-1.425,6.948-2.875,10.183-4.307l1.535-0.689
			c3.084-1.383,6.144-2.823,9.092-4.273l0.317-0.156c0.419-0.204,0.833-0.407,1.242-0.614c2.923-1.459,5.842-2.99,8.677-4.551
			l0.458-0.249c0.219-0.12,0.438-0.236,0.648-0.356c3.201-1.785,6.232-3.572,9.004-5.311c0.161-0.102,0.268-0.27,0.287-0.458
			L1568.296,705c0.02-0.178-0.034-0.353-0.156-0.487C1568.023,704.381,1567.852,704.306,1567.677,704.306z"/>
		<path style="fill:#FFE9C0;" d="M1538.99,651.498c-7.245-2.843-13.188-10.156-15.508-19.084v-0.003
			c-2.426-9.301-1.296-19.067,0.068-28.273c0.034-0.244-0.073-0.485-0.282-0.617c-0.204-0.131-0.468-0.131-0.672,0
			c-10.426,6.692-22.241,14.278-35.376,16.039c-9.939,1.338-20.18-1.574-26.748-7.586c-0.156-0.149-0.38-0.207-0.59-0.139
			c-0.205,0.056-0.37,0.219-0.429,0.427c-4.044,13.907-12.03,27.157-23.732,39.383c-0.175,0.181-0.224,0.446-0.127,0.678
			c0.098,0.229,0.327,0.378,0.575,0.378h102.591c0.302,0,0.556-0.215,0.614-0.507
			C1539.428,651.899,1539.268,651.607,1538.99,651.498z"/>
		<path style="fill:#FFE9C0;" d="M1675.131,547.502c-6.032-11.844-15.805-21.703-27.566-27.827
			c31.411-42.283,35.152-94.076,9.73-135.342c-14.572-23.659-37.978-39.33-65.9-44.129c-30.558-5.25-62.48,3.362-87.624,23.625
			c-0.19,0.154-0.366,0.312-0.541,0.47c-0.142,0.129-0.287,0.256-0.439,0.383c-24.823,20.599-33.51,50.07-24.234,80.395
			c-6.28-9.915-15.347-17.496-25.53-21.06c-11.757-4.117-24.122-2.775-35.747,3.871c-4.521,2.587-8.853,5.888-12.867,9.81
			c-8.014,7.83-12.39,17.333-13.013,28.249c-0.848,14.86,5.418,29.398,10.821,38.979c0.053,0.098,0.136,0.181,0.234,0.236
			c8.092,4.565,16.872,11.181,26.836,20.224c17.213,15.62,27.868,32.909,31.668,51.381c0.044,0.214,0.2,0.393,0.409,0.463
			c0.2,0.068,0.439,0.029,0.604-0.117c0.151-0.127,0.292-0.263,0.434-0.4c0.175-0.166,0.346-0.334,0.536-0.48
			c8.058-6.121,19.985-7.106,29.666-2.436c0.307,0.149,0.677,0.027,0.833-0.287c0.151-0.304,0.029-0.677-0.278-0.831
			c-8.775-4.453-16.151-11.235-21.33-19.612c-2.865-4.624-3.917-8.358-3.303-11.757c1.403-7.741,11.055-11.14,19.562-10.385
			c8.419,0.74,16.512,3.932,22.787,8.984c0.253,0.209,0.633,0.183,0.857-0.071c0.219-0.249,0.205-0.626-0.029-0.86
			c-9.613-9.442-15.815-20.67-17.023-30.801c-0.887-7.474,2.002-15.793,7.357-21.193c3.961-3.993,8.877-5.898,13.773-5.347
			c8.867,0.979,15.031,9.091,17.92,13.839c1.55,2.553,2.943,5.276,4.293,7.912c2.255,4.414,4.594,8.979,7.761,12.928
			c0.181,0.224,0.502,0.302,0.75,0.176c0.263-0.122,0.405-0.407,0.346-0.687c-2.855-14.227,0.482-28.395,8.94-37.903
			c9.286-10.44,24.93-14.002,36.399-8.277c5.452,2.724,10.358,7.581,14.187,14.049c5.963,10.058,7.883,21.505,5.272,31.41
			c-2.89,10.979-11.669,19.727-21.847,21.769c-0.243,0.048-0.434,0.238-0.487,0.48c-0.054,0.243,0.044,0.494,0.249,0.638
			c6.587,4.697,14.051,10.017,17.7,17.866c3.406,7.325,2.008,18.044-5.452,21.713c-4.682,2.321-11.104,1.354-16.356-2.456
			c-4.833-3.508-8.191-8.617-11.435-13.557c-0.186-0.273-0.556-0.363-0.838-0.193c-0.287,0.168-0.39,0.534-0.234,0.829
			c10.86,20.484,11.678,46.331,2.124,67.452c-4.682,10.353-12.833,18.733-21.272,21.868c-0.282,0.105-0.448,0.397-0.395,0.694
			c0.054,0.297,0.312,0.514,0.614,0.514h97.091c0.156,0,0.302-0.056,0.414-0.159c7.654-6.869,13.963-14.743,18.743-23.401
			C1685.197,602.174,1687.048,570.893,1675.131,547.502z"/>
		<path style="fill:#FCCF9B;" d="M864.374,456.703l-0.041-0.227c-1.247-8.456-3.612-16.68-7.028-24.446
			c-15.264-34.721-51.196-57.97-91.537-59.235c-11.355-0.353-22.758,1.006-33.861,4.041c-31.727,8.675-51.927,32.353-55.596,64.351
			c-2.095-13.581-8.965-25.642-19.12-32.909c-8.694-6.217-23.71-11.878-45.891-3.464c-37.245,14.12-29.376,61.562-27.008,72.522
			c-4.2-4.266-15.876-15.018-26.777-15.018c-0.344,0-0.692,0.012-1.035,0.034c-4.717,0.305-8.667,2.736-11.74,7.226
			c-11.766,17.196,6.141,38.277,12.053,44.47c-11.337-3.24-60.19-14.616-96.511,17.778c-19.101,17.036-22.451,40.071-21.9,56.395
			c0.957,28.278,14.553,58.076,33.064,72.463c11.33,8.809,22.996,13.259,34.738,13.259c1.157,0,2.314-0.044,3.471-0.132
			c0.278-0.02,0.509-0.221,0.565-0.494c2.463-11.946,13.094-20.616,25.274-20.616h110.74c0.232,0,0.446-0.129,0.553-0.334
			c0.107-0.205,0.093-0.453-0.039-0.646c-3.803-5.498-5.362-13.281-4.17-20.824c1.496-9.496,6.436-17.997,11.366-25.89
			c0.129-0.21,0.127-0.473-0.01-0.677c-0.134-0.2-0.36-0.302-0.619-0.27c-12.227,1.968-26.088,4.192-38.838,0.558
			c-11.871-3.388-23.751-13.8-23.488-27.147c0.2-10.176,8.18-19.752,18.563-22.273c9.842-2.395,21.155,1.479,28.171,9.627
			c0.224,0.263,0.614,0.295,0.875,0.071c0.261-0.222,0.297-0.612,0.078-0.875c-6.265-7.591-10.314-16.755-11.712-26.502
			c-0.772-5.391-0.241-9.235,1.678-12.097c4.378-6.531,14.643-5.751,22.076-1.698c7.42,4.046,13.564,10.207,17.298,17.347
			c0.156,0.292,0.521,0.412,0.814,0.275c0.302-0.139,0.441-0.49,0.317-0.799c-5.036-12.497-6.232-25.267-3.286-35.035
			c2.175-7.206,8.149-13.676,15.22-16.485c5.22-2.073,10.465-1.858,14.76,0.607c7.733,4.443,10.142,14.341,10.887,19.846
			c0.404,2.968,0.592,6.025,0.775,8.982c0.304,4.948,0.619,10.061,1.944,14.943c0.073,0.273,0.322,0.46,0.602,0.46
			c0.005,0,0.01,0,0.017,0c0.287-0.007,0.531-0.212,0.592-0.492c3.067-14.185,11.795-25.834,23.345-31.164
			c12.699-5.856,28.463-2.86,36.677,6.967c3.907,4.675,6.461,11.089,7.386,18.551c1.442,11.601-1.374,22.865-7.727,30.899
			c-7.042,8.906-18.582,13.422-28.731,11.218c-0.236-0.051-0.492,0.043-0.638,0.246c-0.146,0.202-0.156,0.47-0.029,0.685
			c4.161,6.933,8.875,14.794,9.084,23.449c0.193,8.075-5.376,17.342-13.678,17.724c-5.232,0.28-10.726-3.208-14.01-8.794
			c-3.038-5.164-4.112-11.449-5.062-16.996c-0.053-0.327-0.365-0.553-0.689-0.514c-0.331,0.041-0.573,0.334-0.546,0.665
			c1.764,23.118-7.825,47.133-25.023,62.675c-0.897,0.807-1.932,1.657-3.17,2.597c-0.212,0.163-0.299,0.443-0.214,0.697
			c0.088,0.253,0.324,0.424,0.592,0.424h106.395c0.234,0,0.445-0.129,0.553-0.336c0.107-0.207,0.09-0.456-0.044-0.648
			c-3.072-4.351-5.574-9.004-7.649-14.224c-8.538-21.466-5.179-53.613,8.164-78.17c7.671-14.117,21.983-31.973,46.607-36.884
			c3.927-0.784,7.912-1.272,12.18-1.488c0.229-0.013,0.433-0.151,0.533-0.358c9.423-20.014,12.606-41.403,9.467-63.566
			C864.413,456.918,864.394,456.811,864.374,456.703z"/>
		<path style="fill:#FCCF9B;" d="M1249.797,406.384c-2.767,1.501-5.354,3.62-7.688,6.302c-0.195,0.221-0.209,0.55-0.029,0.787
			c0.258,0.336,0.507,0.68,0.76,1.023c0.117,0.161,0.302,0.255,0.502,0.255c0.01,0,0.024,0,0.034,0
			c0.214-0.012,0.405-0.131,0.507-0.314c1.189-2.085,2.655-3.893,4.355-5.376c0.599-0.521,1.257-0.967,1.949-1.437l0.259-0.178
			c0.273-0.185,0.356-0.556,0.18-0.838C1250.45,406.326,1250.079,406.231,1249.797,406.384z"/>
		<path style="fill:#C90C0F;" d="M1217.767,1527.462c-24.536,12.122-50.665,20.48-77.661,24.845
			c-0.302,0.048-0.526,0.309-0.526,0.616v334.394c0,0.171,0.068,0.334,0.195,0.451c0.117,0.112,0.268,0.173,0.429,0.173
			c0.01,0,0.019,0,0.029,0l2.787-0.132c17.778-0.901,35.571-2.185,52.882-3.817l2.042-0.193c0.307-0.029,0.545-0.278,0.565-0.585
			l20.161-355.157c0.01-0.222-0.093-0.434-0.278-0.558C1218.201,1527.379,1217.967,1527.367,1217.767,1527.462z"/>
		<path style="fill:#C90C0F;" d="M1051.334,1552.307c-27.001-4.365-53.133-12.726-77.666-24.845
			c-0.195-0.093-0.436-0.083-0.619,0.039c-0.185,0.124-0.292,0.336-0.28,0.558l20.304,357.741c0.02,0.314,0.266,0.565,0.58,0.587
			l3.369,0.241c16.231,1.13,32.957,1.927,49.71,2.368l4.485,0.127c0.005,0,0.012,0,0.017,0c0.163,0,0.319-0.063,0.433-0.176
			c0.122-0.119,0.19-0.28,0.19-0.448v-335.576C1051.858,1552.617,1051.636,1552.356,1051.334,1552.307z"/>
		<path style="fill:#C90C0F;" d="M1095.716,1053.124c-125.077,0-226.835,101.759-226.835,226.838S970.64,1506.8,1095.716,1506.8
			c125.081,0,226.84-101.759,226.84-226.838S1220.798,1053.124,1095.716,1053.124z"/>
		<path style="fill:#F6B16A;" d="M863.285,457.018c5.311,5.101,12.889,9.184,20.794,11.198c20.409,5.206,43.116,1.45,60.974-9.759
			c-2.441,2.606-4.704,5.479-6.285,8.731c-3.033,6.234-2.818,13.227,0.546,17.817c2.823,3.854,7.406,5.539,12.149,5.539
			c4.219,0,8.565-1.335,11.905-3.671c6.933-4.85,11.052-12.943,14.319-19.779c4.316,9.435,14.48,16.285,25.754,17.216
			c10.548,0.855,21.815-3.126,30.93-10.962c5.883-5.057,9.944-10.94,11.742-17.008c3.796-12.804-2.667-28.202-15.035-35.82
			c-10.504-6.468-24.359-7.61-37.518-3.194c2.887-2.887,6.197-5.393,9.417-7.832c2.38-1.8,4.838-3.661,7.118-5.666
			c4.344-3.82,11.54-11.639,10.923-21.072c-0.346-5.33-3.257-10.151-8.195-13.574c-6.553-4.543-15.667-6.002-23.223-3.72
			c-8.587,2.592-17.308,9.004-24.524,17.908c2.249-6.037,3.157-12.731,2.577-19.357c-0.787-8.984-6.268-18.553-14.87-18.587
			c-0.014,0-0.027,0-0.041,0c-3.761,0-7.513,1.786-11.797,5.615c-5.876,5.245-10.531,11.671-13.679,18.833
			c0.509-8.872-2.772-17.778-9.004-23.535c-8.261-7.622-21.304-9.026-30.344-3.269c-11.793,7.505-14.022,23.8-10.129,36.019
			c3.958,12.424,13.045,22.553,21.303,31.5c-9.018,0.29-18.446,1.023-26.972,4.931c-7.578,3.476-13.549,9.664-15.975,16.553
			c-0.054,0.149-0.049,0.314,0.017,0.458c3.369,7.664,5.703,15.781,6.935,24.124C863.12,456.796,863.186,456.92,863.285,457.018z
			 M905.695,430.687c6.042-6.541,15.269-9.806,24.095-8.556c0.253,0.041,0.524-0.097,0.646-0.336
			c0.119-0.241,0.073-0.531-0.117-0.721c-3.942-3.961-8.412-8.45-10.049-14.17c-1.902-6.653-0.904-8.378-0.136-8.816
			c3.454-1.949,16.251,9.454,23.51,17.118c0.129,0.137,0.324,0.2,0.502,0.193c0.19-0.014,0.36-0.114,0.465-0.27
			c0.105-0.151,10.443-15.12,22.134-17.14c3.966-0.682,7.676,0.21,11.033,2.655c0.538,0.392,0.796,0.894,0.806,1.576
			c0.036,2.363-2.96,8.684-23.232,24.558c-0.28,0.21-0.558,0.426-0.833,0.65c-0.266,0.214-0.309,0.604-0.095,0.872
			c0.21,0.268,0.602,0.312,0.87,0.105c0.258-0.203,0.519-0.405,0.78-0.609c4.948-3.715,10.546-5.145,15.103-3.859
			c2.924,0.829,5.527,3.167,6.797,6.103c1.021,2.363,1.014,4.762-0.022,6.758c-1.732,3.342-5.625,4.758-8.694,4.97
			c-3.625,0.224-7.221-0.755-10.699-1.73c-0.292-0.073-0.589,0.053-0.726,0.322c-0.134,0.265-0.061,0.589,0.176,0.772
			c0.887,0.689,1.154,1.679,1.225,2.388c0.132,1.31-0.317,2.738-1.169,3.722c-1.339,1.552-3.503,2.502-6.616,2.909
			c-2.409,0.307-6.843,0.434-9.584-2.254c-1.247-1.223-1.863-3.281-1.535-5.121c0.176-0.979,0.592-1.786,1.206-2.355
			c0.341-0.217,0.68-0.439,1.016-0.665c0.268-0.181,0.353-0.536,0.198-0.819c-0.156-0.282-0.499-0.397-0.801-0.268
			c-0.439,0.197-0.833,0.453-1.184,0.762c-7.902,4.987-17.313,7.447-26.652,6.979c-4.889-0.249-10.933-2.246-11.873-7.048
			C901.544,435.817,904.107,432.404,905.695,430.687z"/>
		<path style="fill:#F6B16A;" d="M1372.734,399.581c3.449-2.192,7.221-3.919,10.894-5.6c2.714-1.24,5.52-2.524,8.181-3.988
			c5.072-2.787,13.792-8.858,15.235-18.195c0.823-5.279-0.974-10.617-5.052-15.03c-5.408-5.859-13.964-9.267-21.861-8.672
			c-8.94,0.668-18.85,5.03-27.824,12.153c3.508-5.403,5.847-11.739,6.719-18.334c1.184-8.943-2.085-19.471-10.485-21.372
			c-3.683-0.831-7.742,0.095-12.77,2.911c-6.875,3.842-12.813,9.104-17.442,15.416c2.422-8.548,1.155-17.958-3.683-24.931
			c-6.397-9.235-18.821-13.44-28.906-9.781c-13.145,4.772-18.855,20.195-17.705,32.965c1.164,12.989,7.834,24.847,13.954,35.374
			c-8.863-1.673-18.227-3.006-27.401-1.043c-10.553,2.26-19.031,9.26-21.598,17.827c-1.311,4.372-1.184,8.935,0.37,13.566
			c0.025,0.08,0.068,0.156,0.127,0.219c3.05,3.367,5.939,6.867,8.594,10.405c0.112,0.149,0.288,0.241,0.473,0.249
			c0.17,0.005,0.365-0.071,0.492-0.215c2.241-2.567,4.711-4.597,7.401-6.058c3.776-2.573,8-3.944,12.214-3.959
			c1.905,0,3.771,0.283,5.545,0.838c5.042,1.588,9.496,5.135,12.545,9.983c1.696,2.699,2.933,5.824,3.678,9.293
			c0.044,0.217,0.204,0.392,0.414,0.46c0.215,0.071,0.444,0.022,0.609-0.127c5.057-4.507,10.85-8.017,17.213-10.431
			c0.287-0.107,0.453-0.404,0.395-0.704c-0.063-0.297-0.395-0.485-0.634-0.502c-4.638,0.166-9.237-0.385-13.559-1.581
			c-4.721-1.306-10.188-4.567-10.061-9.457c0.097-3.61,3.337-6.385,5.262-7.717c7.318-5.074,17.028-6.266,25.379-3.121
			c0.258,0.107,0.536,0.019,0.702-0.188c0.171-0.21,0.19-0.502,0.044-0.728c-2.991-4.721-6.377-10.071-6.733-16.015
			c-0.414-6.906,0.935-8.373,1.778-8.633c3.81-1.16,13.818,12.758,19.235,21.813c0.097,0.163,0.263,0.273,0.448,0.297
			c0.181,0.034,0.375-0.03,0.517-0.161c0.126-0.122,12.887-11.947,24.526-11.947c0.268,0,0.536,0.005,0.799,0.02
			c4.02,0.193,7.45,1.868,10.193,4.985c0.438,0.499,0.58,1.045,0.443,1.715c-0.477,2.309-4.77,7.825-28.005,18.926
			c-0.317,0.146-0.639,0.297-0.96,0.458c-0.307,0.153-0.433,0.523-0.282,0.831c0.146,0.307,0.506,0.436,0.828,0.29
			c0.297-0.142,0.599-0.283,0.897-0.427c5.627-2.545,11.386-2.743,15.576-0.487c2.67,1.442,4.702,4.287,5.306,7.427
			c0.482,2.531-0.044,4.875-1.486,6.599c-0.624,0.748-1.472,1.369-2.665,1.956c-0.205,0.1-0.336,0.299-0.351,0.524
			c-0.015,0.221,0.097,0.436,0.282,0.56c4.332,2.818,8.243,6.209,11.63,10.078c7.391,8.453,11.951,18.521,13.193,29.115
			c0.4,3.464,0.546,7.001,0.677,10.621c0.01,0.322,0.268,0.582,0.59,0.602c0.745,0.041,1.491,0.061,2.241,0.061
			c4.409,0,8.891-0.716,13.345-2.139c0.243-0.078,0.419-0.302,0.433-0.558c0.599-10.597,4.853-19.824,12.634-27.43
			c3.946-3.847,8.19-7.084,12.623-9.62c0.234-0.134,0.356-0.407,0.297-0.672c-1.447-6.689-4.833-12.887-9.535-17.455
			C1399.814,402.246,1386.556,398.117,1372.734,399.581z"/>
		<path style="fill:#F6B16A;" d="M771.634,508.377c-8.563-10.248-24.969-13.389-38.153-7.298
			c-11.201,5.167-19.82,16.076-23.422,29.479c-0.809-4-1.062-8.141-1.311-12.17c-0.183-2.982-0.373-6.063-0.782-9.072
			c-0.779-5.734-3.306-16.053-11.503-20.762c-4.631-2.663-10.263-2.906-15.842-0.685c-7.411,2.945-13.674,9.73-15.954,17.284
			c-2.592,8.587-2.075,19.4,1.347,30.336c-3.783-5.213-8.858-9.673-14.697-12.86c-7.922-4.317-18.916-5.047-23.712,2.097
			c-2.1,3.135-2.694,7.257-1.873,12.97c1.116,7.798,3.893,15.23,8.115,21.815c-7.108-5.333-16.351-7.525-24.585-5.525
			c-10.916,2.653-19.306,12.739-19.518,23.462c-0.275,13.978,12.064,24.852,24.395,28.37c12.541,3.579,26.002,1.62,38.027-0.307
			c-4.751,7.676-9.359,15.936-10.819,25.194c-1.24,7.851,0.395,15.973,4.375,21.73c0.117,0.168,0.309,0.268,0.514,0.268h41.988
			c0.136,0,0.268-0.044,0.378-0.127c1.264-0.962,2.326-1.835,3.249-2.665c15.623-14.117,25.067-35.111,25.615-56.185
			c0.824,3.471,1.961,6.943,3.793,10.063c3.515,5.978,9.457,9.671,15.145,9.408c9.018-0.419,15.074-10.348,14.867-19.001
			c-0.205-8.463-4.665-16.37-8.548-22.874c10.241,1.612,21.576-3.048,28.595-11.92c6.558-8.297,9.466-19.898,7.986-31.83
			C778.348,519.872,775.698,513.235,771.634,508.377z M716.962,564.326c-1.808,3.167-4.631,5.601-7.361,7.953
			c-0.227,0.195-0.283,0.521-0.134,0.782c0.146,0.255,0.466,0.38,0.738,0.282c1.067-0.363,2.037-0.036,2.665,0.3
			c1.164,0.616,2.107,1.781,2.456,3.035c0.551,1.973,0.146,4.302-1.24,7.118c-1.07,2.176-3.425,5.942-7.179,6.736
			c-1.712,0.358-3.768-0.265-5.116-1.559c-0.716-0.685-1.157-1.476-1.293-2.302c0.01-0.405,0.012-0.811,0.01-1.216
			c-0.003-0.324-0.251-0.594-0.575-0.619c-0.256-0.007-0.609,0.2-0.665,0.519c-0.078,0.475-0.083,0.948-0.019,1.413
			c-0.224,9.337-3.374,18.546-8.94,26.059c-2.914,3.936-7.935,7.846-12.441,5.988c-3.165-1.316-4.633-4.904-5.31-7.681
			c-2.102-8.655,0.277-18.161,6.209-24.806c0.178-0.2,0.21-0.493,0.075-0.724c-0.131-0.236-0.395-0.351-0.663-0.302
			c-5.476,1.094-11.688,2.336-17.364,0.528c-6.595-2.095-7.479-3.885-7.418-4.764c0.27-3.968,16.87-8.307,27.269-10.11
			c0.185-0.032,0.346-0.146,0.438-0.312c0.09-0.163,0.103-0.361,0.032-0.536c-0.068-0.171-6.811-17.077-2.022-27.925
			c1.622-3.678,4.422-6.275,8.314-7.715c0.624-0.232,1.186-0.171,1.759,0.202c1.988,1.277,5.593,7.265,7.595,32.941
			c0.02,0.348,0.046,0.699,0.08,1.052c0.034,0.341,0.266,0.617,0.675,0.563c0.341-0.029,0.594-0.326,0.568-0.668
			c-0.024-0.326-0.049-0.652-0.076-0.984c-0.356-6.175,1.537-11.628,5.148-14.719c2.302-1.978,5.688-2.855,8.836-2.28
			c2.536,0.456,4.533,1.791,5.622,3.757C719.459,557.624,718.482,561.654,716.962,564.326z"/>
		<path style="fill:#F6B16A;" d="M1612.89,515.4c2.695-10.225,0.726-22.02-5.408-32.363c-3.951-6.672-9.033-11.698-14.704-14.529
			c-11.937-5.966-28.229-2.285-37.89,8.565c-8.2,9.218-11.737,22.663-9.681,36.388c-2.338-3.347-4.234-7.045-6.071-10.641
			c-1.359-2.656-2.762-5.401-4.341-7.993c-3.001-4.943-9.447-13.394-18.845-14.429c-5.306-0.616-10.563,1.437-14.792,5.705
			c-5.617,5.662-8.643,14.385-7.713,22.219c1.062,8.908,5.857,18.614,13.364,27.269c-5.554-3.267-11.985-5.328-18.611-5.91
			c-8.975-0.823-19.367,2.938-20.896,11.406c-0.668,3.72,0.433,7.734,3.469,12.636c4.141,6.699,9.661,12.402,16.161,16.75
			c-8.658-2.046-17.988-0.365-24.741,4.765c-0.234,0.176-0.443,0.375-0.653,0.575c-0.122,0.12-0.243,0.241-0.375,0.353
			c-0.175,0.146-0.253,0.375-0.205,0.599c2.422,11.795,1.915,23.739-1.505,35.493c-0.068,0.229,0.005,0.475,0.18,0.636
			c6.836,6.256,17.486,9.27,27.751,7.903c12.926-1.734,24.482-8.916,34.733-15.489c-1.286,8.933-2.207,18.349,0.156,27.416
			c2.421,9.311,8.652,16.947,16.258,19.932c0.073,0.029,0.151,0.044,0.229,0.044h15.294c0.073,0,0.146-0.013,0.219-0.039
			c8.736-3.247,17.155-11.878,21.973-22.526c8.672-19.179,8.931-42.192,1.013-61.727c2.149,2.87,4.546,5.551,7.498,7.693
			c5.608,4.071,12.536,5.079,17.642,2.568c8.102-3.988,9.681-15.51,6.027-23.359c-3.566-7.674-10.816-13.14-16.979-17.549
			C1601.494,535.151,1610.011,526.338,1612.89,515.4z M1566.303,569.692c-1.422,1.016-3.556,1.262-5.31,0.621
			c-0.936-0.344-1.656-0.897-2.11-1.601c-0.156-0.373-0.312-0.745-0.477-1.116c-0.131-0.297-0.473-0.453-0.774-0.336
			c-0.307,0.105-0.478,0.429-0.4,0.743c0.117,0.466,0.302,0.899,0.541,1.296c3.532,8.651,4.326,18.353,2.232,27.466
			c-1.102,4.77-4.122,10.375-9.009,10.463c-0.034,0-0.073,0-0.107,0c-3.557,0-6.431-3.074-7.834-4.918
			c-5.389-7.096-7.006-16.758-4.224-25.216c0.083-0.256-0.005-0.536-0.224-0.695c-0.107-0.083-0.239-0.124-0.37-0.124
			c-0.127,0-0.248,0.036-0.356,0.112c-4.585,3.191-9.783,6.811-15.703,7.425c-6.884,0.721-8.404-0.57-8.706-1.4
			c-1.335-3.744,12.141-14.358,20.95-20.168c0.161-0.105,0.263-0.273,0.278-0.463c0.019-0.188-0.049-0.373-0.185-0.504
			c-0.127-0.129-13.072-12.926-13.018-24.784c0.015-4.022,1.54-7.52,4.536-10.397c0.478-0.463,1.018-0.636,1.69-0.519
			c2.324,0.373,8.015,4.419,20.137,27.152c0.156,0.314,0.326,0.626,0.497,0.938c0.166,0.299,0.555,0.407,0.843,0.246
			c0.302-0.163,0.414-0.538,0.254-0.841c-0.151-0.29-0.307-0.582-0.463-0.875c-2.796-5.512-3.244-11.264-1.174-15.544
			c1.325-2.733,4.083-4.889,7.196-5.627c2.514-0.595,4.867-0.166,6.65,1.196c2.986,2.287,3.703,6.37,3.381,9.43
			c-0.39,3.615-2.007,6.979-3.566,10.233c-0.132,0.268-0.054,0.592,0.185,0.77c0.239,0.176,0.58,0.166,0.794-0.036
			c0.833-0.755,1.832-0.845,2.562-0.792c1.316,0.1,2.641,0.789,3.464,1.798c1.291,1.595,1.851,3.892,1.705,7.026
			C1570.079,563.071,1569.431,567.461,1566.303,569.692z"/>
		<path style="fill:#F6B16A;" d="M1093.1,633.171c-12.292-1.225-25.238,3.813-35.135,13.542c1.333-3.856,3.214-7.559,5.043-11.159
			c1.349-2.661,2.748-5.413,3.919-8.212c2.237-5.34,5.286-15.52,0.604-23.727c-2.643-4.641-7.366-7.701-13.306-8.619
			c-7.873-1.23-16.719,1.454-22.514,6.811c-6.584,6.09-11.622,15.674-14.214,26.838c-0.619-6.414-2.731-12.831-6.151-18.538
			c-4.636-7.735-13.742-13.937-21.503-10.207c-3.398,1.637-6,4.887-8.19,10.229c-2.987,7.286-4.361,15.101-4.061,22.921
			c-3.421-8.2-10.268-14.774-18.393-17.225c-10.76-3.247-23.101,1.201-28.716,10.334c-4.441,7.228-4.575,16.767-0.37,26.175
			c0.102,0.224,0.324,0.368,0.57,0.368h85.854c0.246,0,0.47-0.146,0.57-0.371c4.68-10.56,11.162-15.189,19.366-13.715
			c0.59,0.105,1.023,0.402,1.325,0.909c0.743,1.247,1.075,4.405-1.559,12.356c-0.063,0.193-0.031,0.4,0.085,0.563
			c0.12,0.163,0.307,0.258,0.507,0.258h82.587c0.214,0,0.414-0.11,0.526-0.29c0.117-0.181,0.127-0.405,0.039-0.6
			C1115.283,641.794,1104.482,634.304,1093.1,633.171z"/>
		<path style="fill:#F6B16A;" d="M1336.038,579.778c-10.383-6.677-24.21-8.085-37.447-3.927c2.938-2.828,6.3-5.269,9.564-7.642
			c2.412-1.756,4.911-3.571,7.23-5.53c4.419-3.737,11.766-11.413,11.338-20.855c-0.244-5.335-3.06-10.212-7.932-13.732
			c-6.47-4.672-15.556-6.322-23.147-4.173c-8.639,2.426-17.481,8.665-24.867,17.425c2.368-5.99,3.406-12.665,2.958-19.301
			c-0.614-8.999-5.9-18.673-14.505-18.875c-0.092-0.003-0.185-0.003-0.272-0.003c-3.688,0-7.406,1.717-11.674,5.386
			c-5.978,5.125-10.757,11.462-14.046,18.563c0.682-8.86-2.426-17.832-8.541-23.71c-8.107-7.781-21.126-9.433-30.275-3.862
			c-11.937,7.274-14.485,23.525-10.831,35.817c3.722,12.507,12.604,22.806,20.687,31.91c-9.023,0.112-18.46,0.66-27.065,4.404
			c-9.9,4.305-16.823,12.845-17.637,21.754c-1.374,14.909,13.325,26.962,28.56,31.162c20.287,5.588,43.079,2.288,61.15-8.568
			c-2.485,2.56-4.804,5.386-6.451,8.609c-3.152,6.175-3.074,13.172,0.195,17.824c2.826,4.015,7.551,5.778,12.434,5.778
			c4.097,0,8.302-1.242,11.581-3.442c7.041-4.721,11.162-12.439,14.704-19.496c4.131,9.517,14.158,16.565,25.413,17.719
			c10.499,1.058,21.866-2.699,31.142-10.358c5.978-4.943,10.148-10.745,12.068-16.78
			C1354.415,603.151,1348.252,587.631,1336.038,579.778z M1259.244,586.058c0.21,0.272,0.599,0.316,0.872,0.122
			c0.258-0.193,0.516-0.39,0.779-0.585c5.019-3.623,10.626-4.965,15.187-3.574c2.904,0.884,5.457,3.274,6.67,6.234
			c0.979,2.382,0.926,4.782-0.146,6.758c-1.803,3.306-5.725,4.645-8.794,4.796c-3.615,0.205-7.211-0.896-10.66-1.937
			c-0.278-0.085-0.59,0.044-0.731,0.305c-0.141,0.263-0.073,0.589,0.156,0.777c0.872,0.706,1.125,1.7,1.179,2.409
			c0.102,1.313-0.37,2.731-1.243,3.7c-1.369,1.525-3.547,2.434-6.67,2.78c-2.407,0.258-6.85,0.307-9.539-2.439
			c-1.223-1.25-1.798-3.32-1.432-5.152c0.195-0.974,0.624-1.771,1.247-2.329c0.351-0.21,0.692-0.424,1.033-0.646
			c0.273-0.176,0.366-0.529,0.214-0.816c-0.156-0.287-0.502-0.405-0.794-0.282c-0.443,0.19-0.848,0.439-1.203,0.743
			c-8,4.828-17.442,7.098-26.782,6.453c-4.887-0.346-10.89-2.46-11.732-7.279c-0.624-3.552,2.003-6.916,3.625-8.607
			c6.173-6.421,15.449-9.532,24.258-8.081c0.253,0.024,0.531-0.087,0.653-0.326c0.127-0.237,0.088-0.529-0.102-0.721
			c-3.864-4.037-8.248-8.609-9.768-14.365c-1.774-6.687-0.74-8.393,0.034-8.816c3.508-1.873,16.064,9.769,23.172,17.573
			c0.131,0.144,0.312,0.209,0.502,0.205c0.185-0.012,0.36-0.107,0.467-0.263c0.107-0.149,10.743-14.918,22.465-16.704
			c3.99-0.607,7.669,0.358,10.977,2.87c0.531,0.402,0.775,0.909,0.775,1.593c-0.01,2.356-3.128,8.609-23.717,24.107
			c-0.282,0.203-0.56,0.41-0.838,0.626C1259.088,585.397,1259.039,585.787,1259.244,586.058z"/>
		<path style="fill:#F6B16A;" d="M933.887,523.454c0.945,2.085,3.196,3.279,5.438,2.914c2.258-0.368,3.997-2.217,4.231-4.497
			c0.612-6.122,3.883-11.961,9.213-16.446c5.211-4.397,11.844-6.916,18.207-6.916c0.015,0,0.029,0,0.044,0
			c1.016,0,2.029,0.063,3.013,0.19c6.821,0.858,13.369,4.473,18.443,10.183c4.979,5.593,8.068,12.828,8.47,19.849
			c0.119,2.015,1.42,3.766,3.316,4.461c0.57,0.21,1.162,0.312,1.749,0.312c1.357,0,2.689-0.546,3.663-1.564
			c9.942-10.439,19.075-19.391,30.234-23.25c3.104-1.091,6.553-1.666,9.978-1.666c0.015,0,0.03,0,0.039,0
			c4.271,0,8.499,0.918,11.902,2.589c3.576,1.756,6.254,4.241,7.949,7.381c0.648,1.191,1.715,2.061,3.016,2.448
			c1.291,0.39,2.665,0.248,3.859-0.4c1.194-0.643,2.066-1.715,2.451-3.013c0.39-1.298,0.249-2.667-0.395-3.858
			c-2.694-4.984-6.986-9.021-12.421-11.669c-4.845-2.368-10.509-3.62-16.378-3.622c-4.628,0.002-9.12,0.755-13.352,2.236
			c-11.267,3.978-20.175,11.7-27.435,18.896c-1.871-5.81-4.992-11.277-9.067-15.869c-6.689-7.527-15.476-12.326-24.741-13.508
			c-1.403-0.18-2.848-0.27-4.295-0.27c-8.855,0.013-17.654,3.313-24.782,9.296c-3.919,3.298-7.145,7.349-9.374,11.764
			c-1.7-2.031-3.416-3.737-5.223-5.194c-5.495-4.434-11.734-6.777-18.056-6.78l-0.575,0.007c-5.617,0.144-11.099,2.619-15.437,6.967
			c-3.23,3.264-5.427,7.367-6.246,11.628c-6.602-3.023-13.827-4.619-20.951-4.623c-1.334,0-2.667,0.053-3.958,0.161
			c-2.787,0.227-4.87,2.68-4.641,5.469c0.232,2.789,2.734,4.879,5.469,4.641c1.028-0.083,2.109-0.078,3.164-0.127
			c8.657,0,17.196,2.852,24.041,8.031c1.912,1.445,4.604,1.345,6.404-0.236c1.798-1.581,2.244-4.239,1.06-6.319
			c-0.611-1.084-0.899-2.183-0.904-3.462c-0.03-2.607,1.41-5.673,3.756-8.012c2.414-2.444,5.581-3.929,8.472-3.976l0.351-0.005
			c3.949,0,7.99,1.569,11.688,4.536C928.823,514.976,931.88,518.996,933.887,523.454z"/>
		<path style="fill:#D78A49;" d="M971.517,422.737c-3.072-0.872-6.465-0.652-9.859,0.568c9.374-7.759,18.246-16.368,18.173-21.106
			c-0.017-1.077-0.461-1.939-1.318-2.565c-3.639-2.651-7.661-3.628-11.98-2.875c-10.943,1.888-20.363,14.078-22.507,17.038
			c-3.549-3.685-19.398-19.671-24.511-16.794c-1.952,1.116-2.098,4.465-0.443,10.241c1.549,5.421,5.415,9.693,9.12,13.457
			c-8.638-0.689-17.498,2.736-23.413,9.138c-2.136,2.311-4.526,5.883-3.766,9.761c1.074,5.503,7.437,7.768,13.033,8.056
			c8.782,0.446,17.6-1.637,25.252-5.905c-0.08,0.256-0.146,0.524-0.198,0.804c-0.404,2.26,0.336,4.706,1.89,6.231
			c2.203,2.163,5.233,2.777,7.964,2.777c0.933,0,1.834-0.07,2.653-0.178c3.43-0.448,5.851-1.537,7.401-3.333
			c1.067-1.232,1.627-3.018,1.466-4.66c-0.058-0.594-0.212-1.152-0.445-1.656c3.016,0.814,6.095,1.506,9.315,1.272
			c4.344-0.297,8.065-2.458,9.712-5.637c1.211-2.334,1.233-5.113,0.058-7.827C977.702,426.272,974.791,423.665,971.517,422.737z"/>
		<path style="fill:#D78A49;" d="M712.233,549.349c-3.525-0.638-7.288,0.351-9.871,2.563c-2.431,2.08-4.124,5.026-4.982,8.526
			c-1.276-12.102-3.537-24.258-7.52-26.816c-0.913-0.585-1.878-0.694-2.867-0.322c-4.222,1.562-7.257,4.383-9.023,8.385
			c-4.485,10.158,0.456,24.75,1.732,28.176c-5.033,0.914-27.152,5.252-27.552,11.12c-0.153,2.244,2.558,4.219,8.283,6.039
			c5.362,1.708,11.25,0.816,16.256-0.153c-5.355,6.845-7.403,16.092-5.347,24.563c0.745,3.057,2.4,7.021,6.046,8.536
			c0.984,0.41,1.978,0.595,2.965,0.595c4.195,0,8.255-3.345,10.957-6.992c5.225-7.055,8.38-15.561,9.058-24.3
			c0.168,0.21,0.356,0.412,0.558,0.607c1.664,1.593,4.122,2.331,6.239,1.876c4.056-0.855,6.611-4.497,8.041-7.403
			c1.525-3.104,1.959-5.722,1.323-8.005c-0.445-1.595-1.596-3.018-3.074-3.803c-0.528-0.28-1.077-0.463-1.625-0.546
			c2.283-2.007,4.634-4.278,6.214-7.05c1.691-2.969,2.758-7.474,0.682-11.215C717.449,551.427,715.145,549.872,712.233,549.349z"/>
		<path style="fill:#D78A49;" d="M1569.445,552.839c-1.043-1.284-2.665-2.126-4.336-2.256c-0.585-0.039-1.164,0.007-1.705,0.151
			c1.286-2.758,2.538-5.783,2.875-8.95c0.36-3.396-0.463-7.948-3.859-10.55c-2.09-1.598-4.833-2.102-7.698-1.42
			c-3.469,0.824-6.544,3.235-8.029,6.295c-1.398,2.885-1.774,6.263-1.159,9.812c-6.012-10.585-12.95-20.828-17.613-21.576
			c-1.067-0.163-1.993,0.117-2.757,0.85c-3.245,3.123-4.902,6.923-4.916,11.296c-0.049,11.106,10.314,22.504,12.858,25.133
			c-4.249,2.848-22.787,15.671-20.809,21.211c0.76,2.117,4.034,2.838,10.007,2.222c5.584-0.582,10.631-3.747,14.835-6.638
			c-2.168,8.411-0.351,17.705,4.921,24.648c1.885,2.477,4.94,5.413,8.823,5.411c0.044,0,0.088,0,0.132,0
			c5.603-0.102,8.945-5.971,10.207-11.432c1.963-8.555,1.452-17.615-1.418-25.895c0.239,0.124,0.492,0.236,0.76,0.334
			c2.148,0.792,4.692,0.487,6.46-0.777c2.641-1.878,4.205-5.43,4.409-9.997C1571.594,557.259,1570.946,554.686,1569.445,552.839z"/>
		<path style="fill:#D78A49;" d="M1036.694,637.388c-8.677-1.549-15.849,3.437-20.726,14.436c-0.085,0.193-0.068,0.417,0.046,0.594
			c0.117,0.176,0.312,0.283,0.524,0.283h20.295c0.268,0,0.507-0.173,0.592-0.427c2.266-6.841,2.739-11.218,1.448-13.389
			C1038.379,638.063,1037.649,637.558,1036.694,637.388z"/>
		<path style="fill:#D78A49;" d="M1285.158,560.457c0-1.077-0.424-1.949-1.272-2.589c-3.586-2.724-7.595-3.779-11.917-3.109
			c-10.977,1.676-20.634,13.678-22.836,16.597c-3.474-3.757-18.991-20.085-24.18-17.27c-1.973,1.075-2.183,4.422-0.643,10.232
			c1.438,5.425,5.35,9.922,8.858,13.63c-8.629-0.858-17.554,2.394-23.586,8.679c-2.183,2.271-4.643,5.795-3.956,9.683
			c0.965,5.523,7.279,7.913,12.872,8.307c8.731,0.636,17.622-1.286,25.359-5.408c-0.083,0.256-0.156,0.521-0.21,0.797
			c-0.453,2.253,0.244,4.714,1.769,6.27c2.255,2.304,5.442,2.936,8.263,2.936c0.809,0,1.583-0.051,2.3-0.132
			c3.439-0.38,5.881-1.42,7.459-3.184c1.111-1.233,1.691-2.964,1.559-4.633c-0.044-0.594-0.185-1.157-0.409-1.664
			c2.918,0.848,6.1,1.61,9.281,1.457c4.351-0.215,8.117-2.302,9.827-5.45c1.257-2.31,1.33-5.089,0.209-7.824
			c-1.349-3.299-4.209-5.964-7.464-6.955c-3.059-0.933-6.46-0.775-9.871,0.378C1276.096,573.627,1285.139,565.186,1285.158,560.457z
			"/>
		<path style="fill:#D78A49;" d="M1385.061,493.834c-2.095-1.374-3.561-3.079-4.745-5.527c-1.516-3.131-2.392-7.51-2.753-13.788
			c-0.117-1.827-0.18-3.734-0.249-5.652l-0.029-0.858c-0.131-3.647-0.282-7.211-0.687-10.721
			c-1.267-10.845-5.934-21.15-13.495-29.795c-3.23-3.693-6.933-6.96-11.016-9.722c0.892-0.528,1.583-1.106,2.139-1.774
			c1.69-2.017,2.314-4.726,1.754-7.632c-0.667-3.498-2.943-6.675-5.934-8.29c-2.816-1.52-6.168-2.037-9.749-1.588
			c10.835-5.542,21.369-12.022,22.324-16.655c0.214-1.055-0.029-1.993-0.731-2.789c-2.977-3.379-6.699-5.199-11.07-5.408
			c-11.103-0.473-22.933,9.323-25.671,11.749c-2.543-4.18-13.641-21.827-19.518-21.827c-0.263,0-0.521,0.036-0.765,0.112
			c-2.144,0.663-3.016,3.9-2.655,9.898c0.336,5.605,3.279,10.787,5.988,15.115c-8.317-2.531-17.676-1.125-24.843,3.84
			c-2.587,1.79-5.691,4.755-5.798,8.706c-0.146,5.605,5.574,9.198,10.977,10.694c3.454,0.955,7.059,1.498,10.757,1.622
			c-5.042,2.237-9.7,5.177-13.881,8.772c-0.794-3.206-2.003-6.117-3.61-8.67c-3.201-5.101-7.898-8.833-13.228-10.509
			c-1.895-0.594-3.883-0.896-5.915-0.896c-4.468,0.017-8.935,1.462-12.916,4.178l-0.258,0.173c-0.692,0.473-1.408,0.96-2.065,1.53
			c-1.579,1.379-2.968,3.018-4.132,4.882c-0.073-0.095-0.141-0.188-0.214-0.282c-2.675-3.564-5.589-7.094-8.663-10.492
			c-20.107-22.202-46.918-38.327-75.498-45.403c-1.32-0.334-2.685-0.122-3.839,0.58c-1.159,0.699-1.978,1.81-2.299,3.126
			c-0.327,1.315-0.122,2.677,0.58,3.837c0.696,1.159,1.808,1.978,3.123,2.304c34.767,8.582,65.662,30.877,84.765,61.167
			l12.351,19.566c0.161,0.256,0.472,0.356,0.755,0.247c0.278-0.107,0.439-0.4,0.385-0.695l-4.215-22.745
			c-0.083-0.456-0.122-0.887-0.122-1.32c-0.014-2.466,1.335-5.065,3.698-7.13c2.363-2.085,5.618-3.377,8.502-3.377
			c0.024,0,0.044,0,0.063,0c0.999,0,1.964,0.144,2.875,0.429c3.06,0.962,5.715,3.12,7.688,6.238c1.925,3.038,3.026,6.901,3.021,10.6
			c0,1.361-0.146,2.709-0.434,4.005l-4.877,21.737c-0.063,0.29,0.083,0.585,0.356,0.707c0.273,0.12,0.59,0.036,0.765-0.21
			l12.852-18.202c2.621-3.737,6.061-7.135,10.207-10.1c4.049-2.884,8.546-5.118,13.359-6.638c4.741-1.491,9.408-2.246,13.885-2.246
			c0.024,0,0.044,0,0.063,0c3.561,0,7.074,0.434,10.441,1.286c8.458,2.149,16.487,7.187,22.607,14.185
			c6.119,6.992,10.046,15.618,11.055,24.29c0.37,3.089,0.492,6.468,0.619,10.049c0.146,4.109,0.297,8.361,0.843,12.563
			c0.624,4.675,1.637,8.365,3.181,11.612c1.9,4.005,4.794,7.342,8.365,9.652c0.833,0.541,1.783,0.818,2.753,0.818
			c0.356,0,0.711-0.036,1.067-0.112c1.326-0.283,2.461-1.062,3.196-2.197c0.74-1.138,0.994-2.492,0.712-3.82
			C1386.975,495.705,1386.196,494.57,1385.061,493.834z"/>
		<path style="fill:#E6E6E6;" d="M1655.945,651.454H535.496c-12.77,0-23.912,9.089-26.497,21.61
			c-0.368,1.788-0.553,3.618-0.553,5.44c0,14.916,12.134,27.05,27.05,27.05h1120.449c14.914,0,27.045-12.134,27.045-27.05
			C1682.99,663.588,1670.858,651.454,1655.945,651.454z"/>
	</g>
</g>
<g id="Capa_2">
</g>
</svg>
